<svg xmlns="http://www.w3.org/2000/svg" xmlns:xlink="http://www.w3.org/1999/xlink" width="225" height="64" viewBox="0 0 225 64"><defs><path id="a" d="M0 .1h224.9V64H0c-.1 0 0-2.2 0-2.3V.1z"/></defs><clipPath><use xlink:href="#a" overflow="visible"/></clipPath><path fill="#0062AF" d="M95.7 60c0 2.6-3.9 3.7-5.1 1.3-.5-1-.4-2.5.5-3.2.8-.7 2.4-1 3.2-.1v-3.9h1.5v1.8c-.1 1.3-.1 2.7-.1 4.1 0 1.5 0 0 0 0zM93 58.7c-1.6 0-1.6 2.7 0 2.7s1.6-2.7 0-2.7m5.1 1.8c.4 1.4 2.5 1.1 3.4.6 0 .2.1 1 0 1.1-.9.4-2.1.5-3.1.3-1.7-.5-2.3-2.5-1.4-4 .8-1.3 3.4-1.5 4.3-.2 1.5 2.2-1.8 2.7-3.2 2.2m0-.9c.5.3 2.6.5 2-.7-.5-1-1.9-.1-2 .7m6.3 3c-.6 0-1.3 0-2-.2v-1.1c.4.1 2.8.7 2.8-.2 0-.7-1.8-.6-2.3-.9-.7-.5-.6-1.8.2-2.3.9-.6 2.4-.4 3.4-.2v1.1c-.4-.1-2.5-.5-2.5.2 0 .5 1.5.5 1.9.7.8.3 1 1.3.7 2-.4.8-1.4.9-2.2.9m12.5-.1h-1.6v-2.2h-3.6v2.2h-1.6c0-3-1-8.2 3.4-8.2s3.4 5.2 3.4 8.2zm-5.2-3.7h3.6c0-1.4 0-3.1-1.8-3.1s-1.8 1.7-1.8 3.1zm8.2 3.8c-.6 0-1.3 0-2-.2v-1.1c.4.1 2.8.7 2.8-.2 0-.7-1.8-.6-2.3-.9-.7-.5-.6-1.8.2-2.3.9-.6 2.4-.4 3.4-.2v1.1c-.4-.1-2.5-.5-2.5.2 0 .5 1.5.5 1.9.7.8.3 1 1.3.7 2-.5.8-1.5.9-2.2.9m4.9 0c-.6 0-1.3 0-2-.2v-1.1c.4.1 2.8.7 2.8-.2 0-.7-1.8-.6-2.3-.9-.7-.5-.6-1.8.2-2.3.9-.6 2.4-.4 3.4-.2v1.1c-.4-.1-2.5-.5-2.5.2 0 .5 1.5.5 1.9.7.8.3 1 1.3.7 2-.4.8-1.4.9-2.2.9m5.8 0c-3.5 0-3.5-5.1 0-5.1s3.5 5.1 0 5.1m0-3.9c-1.6 0-1.6 2.7 0 2.7s1.6-2.7 0-2.7m7.4-1V59c-2.9-1.4-2.9 3.6 0 2.3 0 1.1.2 1.4-1.1 1.4-1 0-2.1-.3-2.6-1.3-1.1-2.6 1.4-4.5 3.7-3.7m1-1.6c0-1.1 1.7-1.1 1.7 0s-1.7 1.1-1.7 0m1.6 4.7c0 .4.2.6.6.4 0 .5.2 1.1-.4 1.2-1 .1-1.7-.2-1.7-1.3v-3.6c.8 0 1.5-.3 1.5.6v2.7c0 .4 0 0 0 0zm6.6.1c0 .4.2.6.6.4 0 .2.1.9 0 1.1-.6.2-1.7.3-2-.4-1.9 2.5-5.5-1.4-3.4-3.7.9-1 2.6-1 3.7-.3 1 .6 1.1 1.8 1.1 2.9 0 .3 0 0 0 0zm-2.7-2.2c-1.6 0-1.6 2.7 0 2.7s1.6-2.7 0-2.7m4-2.3h1.4v1.1h1v1.1h-1c0 1-.3 3.1 1.3 2.6 0 1 .1 1.3-1.2 1.2-1.3-.1-1.5-1.3-1.5-2.4-.1-1.1 0-2.3 0-3.6zm3.6-.3c0-1.1 1.7-1.1 1.7 0s-1.7 1.1-1.7 0m1.5 4.7c0 .4.2.6.6.4 0 .5.2 1.1-.4 1.2-1 .1-1.7-.2-1.7-1.3v-3.6c.8 0 1.5-.3 1.5.6v2.7c0 .4 0 0 0 0zm3.9 1.8c-3.5 0-3.5-5.1 0-5.1s3.5 5.1 0 5.1m0-3.9c-1.6 0-1.6 2.7 0 2.7s1.6-2.7 0-2.7m7 1.2c0-1.4-1.9-1.4-1.9 0v2.6h-1.5c0-1.2-.3-2.9.3-4 1.2-2.2 4.5-1 4.5 1.3v2.6c-.5 0-1.5.3-1.5-.3.1-.7.1-1.4.1-2.2 0-.7 0 0 0 0zm4.4 2.7c-.6 0-1.3 0-2-.2v-1.1c.4.1 2.8.7 2.8-.2 0-.7-1.8-.6-2.3-.9-.7-.5-.6-1.8.2-2.3.9-.6 2.4-.4 3.4-.2v1.1c-.4-.1-2.5-.5-2.5.2 0 .5 1.5.5 1.9.7.8.3 1 1.3.7 2-.4.8-1.4.9-2.2.9m10.9-2.6c0 2.6-3.9 3.7-5.1 1.3-.5-1-.4-2.5.5-3.2.8-.7 2.4-1 3.2-.1v-3.9h1.5v1.8c-.1 1.3-.1 2.7-.1 4.1 0 1.5 0 0 0 0zm-2.7-1.3c-1.6 0-1.6 2.7 0 2.7s1.6-2.7 0-2.7m5.1 1.8c.3 1.4 2.5 1.1 3.4.6 0 .2.1 1 0 1.1-.9.4-2.1.5-3.1.3-1.7-.5-2.3-2.5-1.4-3.9.8-1.3 3.4-1.5 4.3-.2 1.5 2.1-1.9 2.6-3.2 2.1m0-.9c.5.3 2.6.5 2-.7-.5-1-1.9-.1-2 .7m10.1.8l2-6.1h1.6l-2.9 8.2h-1.4l-2.9-8.2c.2 0 1.6-.1 1.6 0l.6 1.8c.5 1.4 1 2.9 1.4 4.3zm4.5.1c.4 1.4 2.5 1.1 3.4.6 0 .2.1 1 0 1.1-.9.4-2.1.5-3.1.3-1.7-.5-2.3-2.5-1.4-3.9.8-1.3 3.4-1.5 4.3-.2 1.5 2.1-1.9 2.6-3.2 2.1m-.1-.9c.5.3 2.6.5 2-.7-.4-1-1.8-.1-2 .7m8 .3c0-1.4-1.9-1.4-1.9 0v2.6h-1.5c0-1.2-.3-2.9.3-4 1.2-2.2 4.5-1 4.5 1.3v2.6c-.5 0-1.5.3-1.5-.3.1-.7.1-1.4.1-2.2 0-.7 0 0 0 0zm7.8.1c0 2.6-3.9 3.7-5.1 1.3-.5-1-.4-2.5.5-3.2.8-.7 2.4-1 3.2-.1v-3.9h1.5v1.8c-.1 1.3-.1 2.7-.1 4.1 0 1.5 0 0 0 0zm-2.7-1.3c-1.6 0-1.6 2.7 0 2.7s1.6-2.7 0-2.7m5.1 1.8c.4 1.4 2.5 1.1 3.4.6 0 .2.1 1 0 1.1-.9.4-2.1.5-3.1.3-1.7-.5-2.3-2.5-1.4-3.9.8-1.3 3.4-1.5 4.3-.2 1.5 2.1-1.8 2.6-3.2 2.1m0-.9c.5.3 2.6.5 2-.7-.5-1-1.9-.1-2 .7m1.8-4h1.6l-1.6 1.3h-1.2c.4-.4.8-.9 1.2-1.3zm4.1 4.9c.4 1.4 2.5 1.1 3.4.6 0 .2.1 1 0 1.1-.9.4-2.1.5-3.1.3-1.7-.5-2.3-2.5-1.4-3.9.8-1.3 3.4-1.5 4.3-.2 1.5 2.1-1.8 2.6-3.2 2.1m0-.9c.5.3 2.6.5 2-.7-.5-1-1.8-.1-2 .7m-119.2-8.3h-1.8v-4.9c0-.7.1-1.7-.4-2.3-1.1-1.2-2.3.3-2.3 1.4v5.8h-1.8v-5.1c0-.7.1-1.7-.5-2.2-1.3-1-2.2.4-2.2 1.5v5.8h-1.8v-5.7c0-1.2.2-2.6 1.4-3.2 1.3-.6 3.3-.4 4.1.9.7-1.3 2.7-1.6 3.9-1 1.3.6 1.5 2 1.5 3.3-.1 1.8-.1 3.7-.1 5.7zm7.3-1.9c0 .4.2.7.7.5 0 .4.2 1.2-.2 1.3-.6.2-1.7.2-2-.5-.9 1.1-2.9.8-3.8-.1-1-1.1-1-3 0-4.1 1-1.1 3-1.1 4.2-.3 1.1.7 1.1 2 1.1 3.2 0 .4 0 0 0 0zm-3-2.4c-1.8 0-1.8 3 0 3s1.8-3 0-3m4.6-2.9c0-1.2 1.9-1.2 1.9 0s-1.9 1.2-1.9 0m1.7 5.3c0 .5.2.7.7.5 0 .7.3 1.3-.6 1.3-1.1.1-1.7-.3-1.7-1.5v-4h1.3c.5 0 .4.1.4.5-.1 1.1-.1 2.2-.1 3.2 0 .4 0 0 0 0zm3.5 2c-.7 0-1.5-.1-2.2-.3v-1.3c.5.2 3.1.8 3.1-.2 0-.8-2.2-.6-2.7-1.1-.7-.7-.5-2.1.4-2.6 1-.5 2.6-.3 3.7-.1V47c-.4-.1-2.8-.6-2.8.3 0 .6 1.8.6 2.3.8.8.4 1 1.6.6 2.4-.5.8-1.5.9-2.4.9m6.5 0c-4 0-4-5.8 0-5.8s4 5.8 0 5.8m0-4.4c-1.8 0-1.8 3 0 3s1.8-3 0-3m8 1.3c0-1.6-2.2-1.6-2.2 0v2.9h-1.7c0-1.3-.3-3.1.3-4.4.6-1.2 2-1.5 3.2-1.2 1.3.3 1.9 1.4 1.9 2.6v3c-.4 0-1.7.3-1.7-.2.2-.9.2-1.8.2-2.7 0-.7 0 0 0 0zm6-6.3c2.4 0 5.6-.5 7.4 1.6 1.2 1.3 1.4 3.6.6 5.2-.8 1.7-2.8 2.5-4.6 2.5h-3.4c-.2 0-.1-1.8-.1-2.1.1-2.4.1-4.8.1-7.2zm1.8 7.7c1.6 0 3.5.2 4.3-1.4 1.2-2.2-.3-4.7-2.8-4.7-.2 0-1.5-.1-1.5.1v6zm9.2-.7c.4 1.6 2.8 1.2 3.9.7 0 .3.1 1.1 0 1.3-1 .5-2.3.6-3.4.3-1.9-.4-2.7-2.6-1.8-4.3.8-1.6 3.8-2 4.9-.5 1.9 2.3-2 3.1-3.6 2.5m0-1c.5.3 2.8.6 2.3-.7-.4-1.2-2.1-.3-2.3.7m2.1-4.6h1.8l-1.8 1.5h-1.4c.5-.4.9-.9 1.4-1.5zm3.1 5.1c0-2.9 4.2-4.2 5.7-1.6.6 1.1.5 2.7-.4 3.6-.9 1-2.9 1.3-3.8.1v2.5c-.3 0-1.4.2-1.6 0-.1-.1 0-1.1 0-1.2.1-1 .1-2.2.1-3.4 0-1.6 0 0 0 0zm3.1 1.5c1.8 0 1.8-3 0-3s-1.8 3 0 3m10.1-.6c0 .4.2.7.7.5 0 .4.2 1.2-.2 1.3-.6.2-1.7.2-2-.5-.9 1.1-2.9.8-3.8-.1-1-1.1-1-3 0-4.1 1-1.1 3-1.1 4.2-.3 1 .7 1.1 2 1.1 3.2 0 .4 0 0 0 0zm-3.1-2.4c-1.8 0-1.8 3 0 3s1.8-3 0-3m7.9-1.4v1.5c-.9-.2-1.6.3-1.6 1.2v2.9h-1.7v-2.9c0-2 1.4-2.8 3.3-2.7m.9-1.2h1.6v1.3h1.1V47h-1.1c0 1.2-.4 3.5 1.5 2.9v1.2c0 .3-1.4.2-1.6.1-1.3-.3-1.5-1.5-1.5-2.6v-4.2zm5.5 4.6c.4 1.6 2.8 1.2 3.9.7 0 .3.1 1.1 0 1.3-1 .5-2.3.6-3.4.3-1.9-.4-2.7-2.6-1.8-4.3.8-1.6 3.8-2 4.9-.5 1.9 2.3-2.1 3.1-3.6 2.5m0-1c.5.3 2.8.6 2.3-.7-.5-1.2-2.2-.3-2.3.7m13.4 3.3h-1.7v-2.7c0-.4.1-.9-.2-1.2-.5-.8-1.5-.1-1.5.7v3.3h-1.7v-2.7c0-.4.1-.9-.2-1.2-.5-.8-1.5-.1-1.5.7v3.3H182c0-1.2-.1-2.4 0-3.6.2-2 3.1-3.1 4.1-1 .8-1.8 3.7-1.2 4 .6.3 1.1.1 2.5.1 3.8zM193 49c.4 1.6 2.8 1.2 3.9.7 0 .3.1 1.1 0 1.3-1 .5-2.3.6-3.4.3-1.9-.4-2.7-2.6-1.8-4.3.8-1.6 3.8-2 4.9-.5 1.8 2.3-2.1 3.1-3.6 2.5m-.1-1c.5.3 2.8.6 2.3-.7-.4-1.2-2.1-.3-2.3.7m9 .3c0-1.6-2.2-1.6-2.2 0v2.9H198c0-1.3-.3-3.1.3-4.4.6-1.2 2-1.5 3.2-1.2 1.3.3 1.9 1.4 1.9 2.6v3c-.4 0-1.7.3-1.7-.2.2-.9.2-1.8.2-2.7 0-.7 0 0 0 0zm2.9-3.9h1.6v1.3h1.1V47h-1.1c0 1.2-.4 3.5 1.5 2.9v1.2c0 .3-1.4.2-1.6.1-1.3-.3-1.5-1.5-1.5-2.6-.1-1.4 0-2.8 0-4.2zm9.9 5c0 .4.2.7.7.5 0 .4.2 1.2-.2 1.3-.6.2-1.7.2-2-.5-.9 1.1-2.9.8-3.8-.1-1-1.1-1-3 0-4.1 1-1.1 3-1.1 4.2-.3 1 .7 1.1 2 1.1 3.2 0 .4 0 0 0 0zm-3.1-2.4c-1.8 0-1.8 3 0 3s1.8-3 0-3m4.7-5h1.7v6.7c0 .5-.2 1.5.7 1.2 0 .3.1 1 0 1.2-.6.2-1.6.3-2.1-.2-.5-.6-.3-1.9-.3-2.6V42zm4.6 7c.4 1.6 2.8 1.2 3.9.7 0 .3.1 1.1 0 1.3-1 .5-2.3.6-3.4.3-1.9-.4-2.7-2.6-1.8-4.3.8-1.6 3.8-2 4.9-.5 1.9 2.3-2 3.1-3.6 2.5m0-1c.5.3 2.8.6 2.3-.7-.4-1.2-2.2-.3-2.3.7"/><path fill="#0062AF" d="M119.8 36.7h-4.6V22.4c0-2 .4-4.6-.9-6.3-.9-1.2-2.8-1.4-4.1-.8-1.8.8-2 3.1-2 4.7v16.6h-4.6V22.1c0-2 .4-4.9-1.1-6.4-1-1-2.9-1-4.1-.4-1.6.8-1.7 3.1-1.7 4.7v16.6H92V20.4c0-3.2.2-7.2 3-9.2 3.3-2.4 9.1-1.4 10.9 2.3 1.9-3.8 7.6-4.8 10.9-2.3 2.8 2.1 3.1 6 3.1 9.3-.1 5.5-.1 10.9-.1 16.2zm4.3-26.4c6.5 0 14.7-1.2 19.2 4.7 3.1 4.1 3.4 10.5 1.2 15.1-2.2 4.4-6.8 6.6-11.6 6.6h-8.8V10.3zm4.7 22.1c4.3 0 9.3.3 11.2-4.5 1.2-2.9 1.1-6.7-.4-9.4-1.4-2.5-4-3.8-6.9-3.8h-2.9c-.4 0-1.1-.3-1.1.3v5.6c.1 3.9.1 7.8.1 11.8zm40.1 4.3h-4.7v-7.2h-10.4v7.2h-4.7v-9.5c0-3.4-.4-7.3.6-10.6 1.7-5.4 7.3-7.5 12.5-6 4.9 1.4 6.6 6.2 6.6 10.9.1 5.1.1 10.2.1 15.2zm-15.1-11.8h10.4c0-4.1.3-10-5.2-10-5.6-.1-5.2 5.9-5.2 10zm26.4 5l5.7-19.6h4.7l-8.4 26.4h-4.1l-8.4-26.4c.8 0 4.6-.5 4.8.3.6 2 1.1 4 1.7 6 1.4 4.4 2.7 8.9 4 13.3z"/><path fill="#FCBC72" d="M20.6 51.2c-4.1 0-8.2-.3-12.1-1.5-2.6-.8-5.4-2.1-7.1-4.4-4.3-6 2.7-13.2 7-16.8.1.8.5 1.6-.2 2.2C6.7 32 5.2 33.4 4 35c-1.5 2.1-2.9 4.7-2.3 7.4 1.3 5.4 9.2 6.6 13.7 7 7.7.7 15.5-.2 23-1.9 7.9-1.7 15.6-4.2 22.9-7.6 4.3-2 8.5-4.3 12.3-7.1 2.8-2.1 5.6-4.5 7.6-7.4 1.3-2 2.3-4.5 1.5-6.8-1.4-4.1-6.9-5.5-10.7-6.1l-.3-1.8c4.8.8 12.1 2.9 12.9 8.8.5 3.9-2.1 7.5-4.6 10.1-4 4.3-9.2 7.5-14.4 10.2-6.9 3.6-14.2 6.2-21.7 8.2-7.5 1.9-15.4 3.2-23.3 3.2"/><path fill="#00ACE4" d="M52.4 19.9c-.5-3-1.5-6-3.5-8.3-2-2.4-5.1-3.6-8.1-4.2-.8-.2-1.5-.3-2.3-.4-.5-.1-1-.1-1.4-.2-.2.3-.3.6-.5.9-.7 1.4-1.1 3-1.3 4.5-.5 3.6-.3 7.4.6 10.9 5-2.5 10.9-3.2 16.5-3.2"/><path fill="#00A5DF" d="M30.4 27.4c1-1.6 2.6-2.8 4.2-3.7l1.2-.6c-.1-.6-.3-1.2-.4-1.8-.2-1.1-.3-2.1-.4-3.2-.2-3.8.1-8 1.9-11.3-5.5-.6-11.1-.2-16.4 1.4-4.3 1.3-8.8 3.4-10.7 7.7-2 4.4-2 9.6-1.4 14.3.6 5 2.1 10.2 5.1 14.4.1-2.2.6-4.5 1.9-6.3 1.2-1.6 3-2.5 4.8-3.2 2.2-.8 4.6-1.3 7-1.5 1-.1.9 0 1.1-1 .1-.6.3-1.2.5-1.8.5-1.2 1-2.3 1.6-3.4"/><path fill="#00B4E7" d="M51.1 36.7c-3.7-.1-7.7-.9-10.3-3.6-2.6-2.7-4-6.4-4.9-10-2 1-4 2.3-5.4 4.1-1.3 1.8-2 4.1-2.4 6.4 3.7-.2 8.7 0 11.7 2.5 3.1 2.5 3.6 7.3 3.4 11 4.1-2.5 6.5-6 7.9-10.4"/><path fill="#F89825" d="M70.1 26.6c-1.6 3.9-4.4 6.4-8.2 8-2 .8-4.1 1.4-6.2 1.7-1.1.2-2.2.3-3.2.3h-1.6c-.2.6-.4 1.2-.7 1.8-.9 2.1-2 4.2-3.7 5.8-.9.8-1.8 1.5-2.8 2.2-.8.5-.5 2.6-.7 3.5-.7 4.6-2.4 8.9-6.8 11.1 4.1 3 9.7 3.4 14.5 3 5.2-.5 10.7-2 14.8-5.4 4.2-3.4 5.9-9 6.7-14.2 1.1-5.9 1-12.6-2.1-17.8"/><path fill="#EC2470" d="M29.4 50.2c-2.8 0-6.1-.1-9-.9-1.4-.4-2.8-1-4-1.8-1.3-.9-2.2-2.3-3.1-3.5-.5 5.4.7 13 5.1 16.8 4.6 3.9 12.9 2.7 17.8.2-3.5-2.6-5.5-6.9-6.8-10.8"/><path fill="#EB2258" d="M36.2 60.9c5.4-2.8 7.1-9 7.2-14.8-4.2 2.5-9.2 3.7-14 4 1.2 4 3.3 8.3 6.8 10.8"/><path fill="#16A9E1" d="M28.3 33.3c-5.8.2-13.3 1.8-14.7 8.4-.2.7-.3 1.5-.3 2.2.5.7 1.1 1.5 1.6 2.2 1.1 1.3 2.4 2.1 4 2.8 3.4 1.4 7.1 1.7 10.7 1.5-1.7-5.4-2.3-11.4-1.3-17.1m.1 0c-.1 0-.1 0 0 0-.1.1-.1.1 0 0-.1 0 0 0 0 0zm1.2 17.1c-.1 0 0 0 0 0"/><path fill="#93BCE4" d="M39.2 35.5c-1.7-1.1-3.7-1.6-5.7-1.9-1.3-.2-2.5-.3-3.8-.3-.6 0-1.4-.3-1.6.4-.1.6-.2 1.2-.2 1.7-.5 5 .1 10.2 1.6 15 4.6-.3 9.4-1.5 13.4-3.8 1.2-.7-.1-5.3-.5-6.5-.5-1.8-1.6-3.5-3.2-4.6"/><path fill="#92C83F" d="M67.3 2.7c-4.5-3-10.9-3-16.1-2.5C46.4.7 39.7 2.1 37 6.7c3.4.4 7.1 1.1 10 3.2 2.7 1.9 4.2 5.2 4.9 8.4.1.4.2.8.3 1.3.1.7.5.4 1.1.4 1 0 1.9.1 2.9.2 1.9.2 3.9.5 5.8 1 3.4.9 6.4 2.6 8.2 5.7 1.7-4.2 2.4-8.9 2-13.4-.3-4-1.4-8.5-4.9-10.8"/><path fill="#00C0EF" d="M35.9 23c.9 3.9 2.6 8.4 5.9 10.9 1.8 1.4 4 2.1 6.2 2.4.6.1 1.3.2 1.9.2.9.1 1 .1 1.2-.8.4-1.2.6-2.3.9-3.5.5-2.5.7-5 .7-7.5 0-1.2-.1-2.5-.2-3.7-.1-.7.1-1.3-.7-1.3-.6 0-1.3 0-1.9.1-4.8.3-9.7 1.1-14 3.2"/><path fill="#F9ED36" d="M52.3 19.9m14.6 3.2c-4.2-2.8-9.8-3.3-14.7-3.3.9 5.6.4 11.6-1.4 16.9 4.6.2 9.5-.8 13.6-3.1 1.8-1.1 3.5-2.5 4.6-4.3.3-.5.6-1.1.9-1.6.4-.9.3-1.1-.3-2-.7-1.1-1.6-1.9-2.7-2.6"/></svg>